<svg width="34" height="27" viewBox="0 0 34 27" fill="none" xmlns="http://www.w3.org/2000/svg">
<path d="M0.28125 6.42188C0.09375 7.35938 0 8.375 0 9.46875C0 11.5625 0.359375 13.75 1.07812 16.0312C1.79688 18.3125 2.9375 20.4062 4.5 22.3125C6.0625 24.25 8.125 25.6719 10.6875 26.5781C10.9375 26.7031 11.2188 26.7656 11.5312 26.7656C11.8125 26.7656 12.0781 26.6719 12.3281 26.4844C12.5781 26.2969 12.7031 25.9062 12.7031 25.3125V22.7344C11.2031 21.8281 9.84375 20.4844 8.625 18.7031C7.4375 16.9219 6.84375 15 6.84375 12.9375C6.90625 13 7.09375 13.0312 7.40625 13.0312C9.4375 13.0312 11.0781 12.3906 12.3281 11.1094C13.5781 9.85938 14.2031 8.29688 14.2031 6.42188C14.2031 4.64062 13.5781 3.125 12.3281 1.875C11.0781 0.625 9.4375 0 7.40625 0C5.34375 0 3.71875 0.625 2.53125 1.875C1.375 3.125 0.625 4.64062 0.28125 6.42188ZM19.875 6.42188C19.6875 7.35938 19.5938 8.375 19.5938 9.46875C19.5938 11.5625 19.9531 13.75 20.6719 16.0312C21.3906 18.3125 22.5312 20.4062 24.0938 22.3125C25.6562 24.25 27.7031 25.6719 30.2344 26.5781C30.5469 26.7031 30.8438 26.7656 31.125 26.7656C31.4062 26.7656 31.6562 26.6719 31.875 26.4844C32.125 26.2969 32.25 25.9062 32.25 25.3125V22.7344C30.7812 21.8281 29.4375 20.4844 28.2188 18.7031C27.0312 16.9219 26.4375 15 26.4375 12.9375C26.5 13 26.6875 13.0312 27 13.0312C29.0312 13.0312 30.6719 12.3906 31.9219 11.1094C33.1719 9.85938 33.7969 8.29688 33.7969 6.42188C33.7969 4.64062 33.1719 3.125 31.9219 1.875C30.6719 0.625 29.0312 0 27 0C24.9375 0 23.3125 0.625 22.125 1.875C20.9688 3.125 20.2188 4.64062 19.875 6.42188Z" fill="#FFCD00"/>
</svg>
